<svg xmlns="http://www.w3.org/2000/svg" viewBox="0 0 512 512">
  <rect width="512" height="512" rx="90" ry="90" fill="#e50914"/>
  <circle cx="256" cy="140" r="60" fill="#ffffff"/>
  <path d="M 176 230 
           C 168 230 160 238 160 248 
           L 160 340 
           C 160 350 168 358 178 358 
           C 188 358 196 350 196 340 
           L 196 310 
           L 196 358 
           L 196 430 
           C 196 444 207 456 222 456 
           C 237 456 248 444 248 430 
           L 248 358 
           L 264 358 
           L 264 430 
           C 264 444 275 456 290 456 
           C 305 456 316 444 316 430 
           L 316 358 
           L 316 310 
           L 316 340 
           C 316 350 324 358 334 358 
           C 344 358 352 350 352 340 
           L 352 248 
           C 352 238 344 230 336 230 
           Z" fill="#ffffff"/>
</svg>
